<svg width="256" height="149" viewBox="0 0 256 149" fill="none" xmlns="http://www.w3.org/2000/svg">
<g clip-path="url(#clip0_1_4)">
<path d="M22.656 68V11.36H0.384V0.799995H57.408V11.36H35.136V68H22.656ZM84.468 68.672C78.772 68.672 73.78 67.552 69.492 65.312C65.268 63.008 61.972 59.872 59.604 55.904C57.3 51.936 56.148 47.424 56.148 42.368C56.148 37.248 57.268 32.736 59.508 28.832C61.812 24.864 64.948 21.76 68.916 19.52C72.948 17.28 77.524 16.16 82.644 16.16C87.636 16.16 92.084 17.248 95.988 19.424C99.892 21.6 102.964 24.672 105.204 28.64C107.444 32.608 108.564 37.28 108.564 42.656C108.564 43.168 108.532 43.744 108.468 44.384C108.468 45.024 108.436 45.632 108.372 46.208H65.652V38.24H102.036L97.332 40.736C97.396 37.792 96.788 35.2 95.508 32.96C94.228 30.72 92.468 28.96 90.228 27.68C88.052 26.4 85.524 25.76 82.644 25.76C79.7 25.76 77.108 26.4 74.868 27.68C72.692 28.96 70.964 30.752 69.684 33.056C68.468 35.296 67.86 37.952 67.86 41.024V42.944C67.86 46.016 68.564 48.736 69.972 51.104C71.38 53.472 73.364 55.296 75.924 56.576C78.484 57.856 81.428 58.496 84.756 58.496C87.636 58.496 90.228 58.048 92.532 57.152C94.836 56.256 96.884 54.848 98.676 52.928L105.108 60.32C102.804 63.008 99.892 65.088 96.372 66.56C92.916 67.968 88.948 68.672 84.468 68.672ZM143.611 68.672C138.235 68.672 133.435 67.552 129.211 65.312C125.051 63.008 121.787 59.872 119.419 55.904C117.051 51.936 115.867 47.424 115.867 42.368C115.867 37.248 117.051 32.736 119.419 28.832C121.787 24.864 125.051 21.76 129.211 19.52C133.435 17.28 138.235 16.16 143.611 16.16C148.603 16.16 152.987 17.184 156.763 19.232C160.603 21.216 163.515 24.16 165.499 28.064L156.283 33.44C154.747 31.008 152.859 29.216 150.619 28.064C148.443 26.912 146.075 26.336 143.515 26.336C140.571 26.336 137.915 26.976 135.547 28.256C133.179 29.536 131.323 31.392 129.979 33.824C128.635 36.192 127.963 39.04 127.963 42.368C127.963 45.696 128.635 48.576 129.979 51.008C131.323 53.376 133.179 55.2 135.547 56.48C137.915 57.76 140.571 58.4 143.515 58.4C146.075 58.4 148.443 57.824 150.619 56.672C152.859 55.52 154.747 53.728 156.283 51.296L165.499 56.672C163.515 60.512 160.603 63.488 156.763 65.6C152.987 67.648 148.603 68.672 143.611 68.672ZM204.491 16.16C208.587 16.16 212.235 16.96 215.435 18.56C218.699 20.16 221.259 22.624 223.115 25.952C224.971 29.216 225.899 33.44 225.899 38.624V68H213.899V40.16C213.899 35.616 212.811 32.224 210.635 29.984C208.523 27.744 205.547 26.624 201.707 26.624C198.891 26.624 196.395 27.2 194.219 28.352C192.043 29.504 190.347 31.232 189.131 33.536C187.979 35.776 187.403 38.624 187.403 42.08V68H175.403V-3.232H187.403V30.56L184.811 26.336C186.603 23.072 189.195 20.576 192.587 18.848C196.043 17.056 200.011 16.16 204.491 16.16Z" fill="white"/>
<path d="M0.944001 146V78.8H6.8L53.168 137.168H50.096V78.8H57.104V146H51.248L4.976 87.632H8.048V146H0.944001ZM99.0058 146.48C93.7578 146.48 89.1498 145.392 85.1818 143.216C81.2138 140.976 78.1098 137.936 75.8698 134.096C73.6298 130.192 72.5098 125.744 72.5098 120.752C72.5098 115.76 73.5658 111.344 75.6778 107.504C77.8538 103.664 80.7978 100.656 84.5098 98.48C88.2858 96.24 92.5098 95.12 97.1818 95.12C101.918 95.12 106.11 96.208 109.758 98.384C113.47 100.496 116.382 103.504 118.494 107.408C120.606 111.248 121.662 115.696 121.662 120.752C121.662 121.072 121.63 121.424 121.566 121.808C121.566 122.128 121.566 122.48 121.566 122.864H77.6938V117.776H117.918L115.23 119.792C115.23 116.144 114.43 112.912 112.83 110.096C111.294 107.216 109.182 104.976 106.494 103.376C103.806 101.776 100.702 100.976 97.1818 100.976C93.7258 100.976 90.6218 101.776 87.8698 103.376C85.1178 104.976 82.9738 107.216 81.4378 110.096C79.9018 112.976 79.1338 116.272 79.1338 119.984V121.04C79.1338 124.88 79.9658 128.272 81.6298 131.216C83.3578 134.096 85.7258 136.368 88.7338 138.032C91.8058 139.632 95.2938 140.432 99.1978 140.432C102.27 140.432 105.118 139.888 107.742 138.8C110.43 137.712 112.734 136.048 114.654 133.808L118.494 138.224C116.254 140.912 113.438 142.96 110.046 144.368C106.718 145.776 103.038 146.48 99.0058 146.48ZM144.87 146L125.862 95.6H132.39L149.67 142.352H146.694L164.454 95.6H170.31L187.878 142.352H184.902L202.47 95.6H208.71L189.606 146H183.174L166.278 102.032H168.294L151.302 146H144.87ZM231.946 146.48C227.786 146.48 223.85 145.904 220.138 144.752C216.426 143.536 213.514 142.032 211.402 140.24L214.474 134.864C216.522 136.4 219.146 137.744 222.346 138.896C225.546 139.984 228.906 140.528 232.426 140.528C237.226 140.528 240.682 139.792 242.794 138.32C244.906 136.784 245.962 134.768 245.962 132.272C245.962 130.416 245.354 128.976 244.138 127.952C242.986 126.864 241.45 126.064 239.53 125.552C237.61 124.976 235.466 124.496 233.098 124.112C230.73 123.728 228.362 123.28 225.994 122.768C223.69 122.256 221.578 121.52 219.658 120.56C217.738 119.536 216.17 118.16 214.954 116.432C213.802 114.704 213.226 112.4 213.226 109.52C213.226 106.768 213.994 104.304 215.53 102.128C217.066 99.952 219.306 98.256 222.25 97.04C225.258 95.76 228.906 95.12 233.194 95.12C236.458 95.12 239.722 95.568 242.986 96.464C246.25 97.296 248.938 98.416 251.05 99.824L248.074 105.296C245.834 103.76 243.434 102.672 240.874 102.032C238.314 101.328 235.754 100.976 233.194 100.976C228.65 100.976 225.29 101.776 223.114 103.376C221.002 104.912 219.946 106.896 219.946 109.328C219.946 111.248 220.522 112.752 221.674 113.84C222.89 114.928 224.458 115.792 226.378 116.432C228.362 117.008 230.506 117.488 232.81 117.872C235.178 118.256 237.514 118.736 239.818 119.312C242.186 119.824 244.33 120.56 246.25 121.52C248.234 122.416 249.802 123.728 250.954 125.456C252.17 127.12 252.778 129.328 252.778 132.08C252.778 135.024 251.946 137.584 250.282 139.76C248.682 141.872 246.314 143.536 243.178 144.752C240.106 145.904 236.362 146.48 231.946 146.48Z" fill="white"/>
</g>
<defs>
<clipPath id="clip0_1_4">
<rect width="256" height="149" fill="white"/>
</clipPath>
</defs>
</svg>
